PathFileType	4	(X/Y/Z)	s01c0302.trc
DataRate	CameraRate	NumFrames	NumMarkers	Units	OrigDataRate	OrigDataStartFrame	OrigNumFrames
200	200	4	48	mm	200	1500	2000
Frame#	Time	racr			lacr			c7			jug			rlel			rdr			llel			ldr			s2			lic			ric			lasi			rasi			rpsi			lpsi			rgt			lgt			rth1			rth2			rth3			rth4			rlfc			rsh1			rsh2			rsh3			rsh4			rlmal			rmmal			rcal			rtoe			rmt5			lth1			lth2			lth4			lth3			llfc			lsh1			lsh2			lsh3			lsh4			llmal			lmmal			lcal			ltoe			lmt5			SBIKE			LBIKE			RBIKE			
		X1	Y1	Z1	X2	Y2	Z2	X3	Y3	Z3	X4	Y4	Z4	X5	Y5	Z5	X6	Y6	Z6	X7	Y7	Z7	X8	Y8	Z8	X9	Y9	Z9	X10	Y10	Z10	X11	Y11	Z11	X12	Y12	Z12	X13	Y13	Z13	X14	Y14	Z14	X15	Y15	Z15	X16	Y16	Z16	X17	Y17	Z17	X18	Y18	Z18	X19	Y19	Z19	X20	Y20	Z20	X21	Y21	Z21	X22	Y22	Z22	X23	Y23	Z23	X24	Y24	Z24	X25	Y25	Z25	X26	Y26	Z26	X27	Y27	Z27	X28	Y28	Z28	X29	Y29	Z29	X30	Y30	Z30	X31	Y31	Z31	X32	Y32	Z32	X33	Y33	Z33	X34	Y34	Z34	X35	Y35	Z35	X36	Y36	Z36	X37	Y37	Z37	X38	Y38	Z38	X39	Y39	Z39	X40	Y40	Z40	X41	Y41	Z41	X42	Y42	Z42	X43	Y43	Z43	X44	Y44	Z44	X45	Y45	Z45	X46	Y46	Z46	X47	Y47	Z47	X48	Y48	Z48	
1500	7.5000	730.925476	1360.126709	-103.131668	721.859741	1347.381592	-437.703979	692.440552	1432.353394	-261.392731	683.718323	1271.379150	-268.926453	657.369751	1087.855225	9.134061	738.919128	854.751465	-60.241348	649.449524	1078.629395	-544.288025	733.722778	863.109497	-434.846375	0.000000	0.000000	-0.000000	322.362518	1211.113281	-411.442902	341.129089	1165.620361	-100.312294	322.452789	1154.317261	-393.243652	354.629791	1116.259399	-127.724319	199.780975	1221.410767	-175.725922	185.980988	1236.124878	-280.716736	261.419159	1046.839233	-69.668213	264.248535	1092.352661	-450.928680	298.297729	927.579956	-49.938778	323.259979	849.431763	-59.778976	344.557617	762.826904	-70.947021	375.415070	864.514221	-76.943062	350.903778	647.692871	-96.188843	290.500397	545.492920	-64.501244	260.311371	466.523346	-70.408897	221.074493	387.219177	-80.856491	305.182465	448.904907	-106.749596	158.036377	287.455902	-105.457733	198.043686	282.844727	-178.614700	113.388695	292.327301	-157.871994	321.599579	119.241646	-133.086639	217.086044	156.697556	-68.152939	352.543823	1010.427673	-468.095551	437.777802	987.119080	-480.021698	454.790619	1037.628418	-467.686310	517.146973	954.105042	-476.161194	600.001953	872.132568	-467.561310	497.838318	832.918701	-482.110168	431.676605	779.216675	-465.128571	365.932434	729.257080	-442.704010	471.606873	737.845154	-443.419891	267.910217	648.202576	-413.316498	301.376709	639.113892	-335.775818	210.694733	653.909363	-366.764862	389.720825	442.927795	-370.874512	302.082916	502.695618	-439.237244	-224.191208	892.890076	-251.715775	-12.511565	84.827965	-455.995300	-21.590179	80.855057	-55.863804	
1501	7.5050	731.158508	1360.419678	-103.627892	721.050964	1347.905151	-438.174500	692.185364	1432.514648	-261.593719	683.615601	1271.485474	-269.071106	658.402161	1087.781616	8.949933	738.936768	854.574402	-60.263309	648.855530	1078.574463	-544.320740	733.581360	863.119812	-434.664978	0.000000	0.000000	-0.000000	322.567963	1212.499390	-409.992920	341.164856	1165.295166	-100.031837	322.547028	1155.838867	-392.526703	354.982208	1116.344482	-127.289078	199.496490	1221.280640	-174.982010	185.552933	1236.612061	-279.724457	261.609100	1046.554321	-69.536934	265.354431	1094.169678	-450.689575	298.953888	927.766785	-49.962376	323.798492	849.579590	-59.703163	344.939819	762.884094	-70.644257	375.761078	864.628235	-77.237373	350.184357	647.675659	-95.978264	288.082855	546.443298	-64.459999	256.454468	468.039093	-70.438744	215.860062	389.479889	-81.088036	301.105408	449.652771	-106.727112	151.064880	290.886963	-105.750732	191.312469	285.983917	-178.651474	106.819923	296.500549	-158.246567	311.401215	119.277222	-133.161194	207.604416	158.950470	-68.334656	353.840546	1012.160095	-467.755798	439.153503	989.354431	-479.331146	455.894897	1039.934204	-467.161255	518.607605	956.702942	-475.453796	602.375061	876.189941	-466.619385	500.842773	835.398193	-481.373718	435.573792	780.336304	-464.891144	370.763245	729.049683	-442.711487	476.580811	739.277039	-442.994354	273.867554	645.191589	-413.388824	307.125397	637.337646	-335.902832	215.764526	649.883301	-367.065613	400.278748	443.933899	-371.212708	311.076080	501.059204	-439.512909	-224.232529	892.901794	-251.784729	-12.515948	84.829285	-456.006989	-21.583038	80.858559	-55.880524	
1502	7.5100	731.281250	1360.838867	-104.059517	720.229492	1348.439087	-438.649078	691.852112	1432.754883	-261.763245	683.367371	1271.557739	-269.201508	659.238831	1087.849487	8.858213	738.977600	854.416321	-60.332783	648.421814	1078.564209	-544.258789	733.404907	863.173950	-434.519287	0.000000	0.000000	-0.000000	322.668396	1214.244873	-408.649933	340.978271	1165.715820	-99.528381	322.585083	1157.482422	-391.952667	355.191803	1116.762207	-126.844093	199.163544	1221.267090	-174.369904	185.110123	1237.126343	-278.772949	261.858246	1046.509888	-69.454407	266.562195	1096.158081	-450.382751	300.093048	928.203247	-50.299179	324.951416	849.989075	-59.839832	346.184906	763.303040	-70.705597	376.740448	865.103516	-77.745995	350.277771	647.874756	-95.835655	286.233521	547.745544	-64.386864	253.107559	469.930756	-70.468613	211.101639	392.208893	-81.175995	297.304657	450.942169	-107.139183	144.583008	294.965027	-105.875755	184.855118	289.272766	-178.689011	100.557350	301.485077	-158.547775	301.262970	119.863419	-133.238876	198.329056	161.835938	-68.504478	355.012726	1013.999207	-467.473328	440.390869	991.410950	-478.625366	457.023895	1042.036255	-466.403656	519.865906	958.853760	-474.620605	604.479858	879.474976	-465.531067	503.553558	837.084351	-480.264069	439.143921	780.693848	-464.527802	375.218384	728.088318	-442.702545	480.857849	740.613525	-443.050079	279.220276	641.953491	-413.683990	312.537750	634.787720	-336.005890	220.710464	645.091919	-367.433807	410.632385	443.841705	-370.808502	319.889099	498.734131	-439.812073	-224.262787	892.898804	-251.888931	-12.520228	84.834419	-456.022675	-21.582872	80.868500	-55.882263	
1503	7.5150	731.318237	1361.218628	-104.514763	719.410278	1349.010986	-439.014099	691.452637	1433.073853	-261.902435	682.999390	1271.673828	-269.301422	659.907349	1088.016846	8.754732	738.998047	854.269775	-60.392403	648.104797	1078.593628	-544.100647	733.467651	863.325623	-434.542572	0.000000	0.000000	-0.000000	322.747681	1216.298340	-407.343658	340.825348	1166.630371	-99.043159	322.567566	1159.016724	-391.530426	355.372894	1117.489746	-126.350159	198.827118	1221.355347	-173.931564	184.693649	1237.663330	-277.970062	262.199677	1046.830566	-69.412064	267.673859	1098.242676	-450.003510	301.517883	928.763794	-50.902184	326.672150	850.682190	-60.214344	348.232391	763.982910	-71.069328	378.243713	865.782959	-78.615143	351.221863	648.468323	-95.850739	284.897827	549.414795	-64.389839	250.228149	472.309021	-70.555435	206.716461	395.330200	-81.331726	294.103058	452.394775	-107.109161	137.875107	299.486816	-106.523155	178.871536	292.591309	-178.811661	94.717934	307.060120	-158.891586	291.244049	121.076187	-133.338516	189.289200	165.330719	-68.659340	356.136780	1015.774292	-467.107849	441.487335	993.168640	-477.877716	458.074615	1043.825684	-465.471283	520.881714	960.498962	-473.663727	605.936157	882.010498	-464.518036	505.871155	838.085388	-478.909973	442.403625	780.262390	-464.043640	379.438782	726.370422	-442.592407	484.804138	740.821167	-442.719391	284.494904	637.681213	-414.004242	317.741058	631.494934	-336.066742	225.568405	639.569519	-367.829437	420.874146	443.425415	-370.658661	328.511597	495.782410	-440.105560	-224.298477	892.910522	-251.989258	-12.523532	84.833755	-456.039673	-21.601847	80.899841	-55.915173	
